<?xml version="1.0" encoding="UTF-8" standalone="no" ?>
<!DOCTYPE svg PUBLIC "-//W3C//DTD SVG 1.1//EN" "http://www.w3.org/Graphics/SVG/1.1/DTD/svg11.dtd">
<svg xmlns="http://www.w3.org/2000/svg" xmlns:xlink="http://www.w3.org/1999/xlink" version="1.1" width="1080" height="1080" viewBox="0 0 1080 1080" xml:space="preserve">
<desc>Created with Fabric.js 5.2.4</desc>
<defs>
</defs>
<rect x="0" y="0" width="100%" height="100%" fill="transparent"></rect>
<g transform="matrix(1 0 0 1 540 540)" id="52aacab5-8a32-465a-836f-99eb3d05444d"  >
</g>
<g transform="matrix(1 0 0 1 540 540)" id="18171714-3642-4169-9216-15ffd99fef51"  >
<rect style="stroke: none; stroke-width: 1; stroke-dasharray: none; stroke-linecap: butt; stroke-dashoffset: 0; stroke-linejoin: miter; stroke-miterlimit: 4; fill: rgb(255,255,255); fill-rule: nonzero; opacity: 1; visibility: hidden;" vector-effect="non-scaling-stroke"  x="-540" y="-540" rx="0" ry="0" width="1080" height="1080" />
</g>
<g transform="matrix(0.13 0 0 -0.13 540 540)"  >
<path style="stroke: rgb(169,219,239); stroke-width: 0; stroke-dasharray: none; stroke-linecap: butt; stroke-dashoffset: 0; stroke-linejoin: miter; stroke-miterlimit: 4; fill: rgb(44,169,201); fill-rule: nonzero; opacity: 1;" vector-effect="non-scaling-stroke"  transform=" translate(-3020, -3020)" d="M 0 3020 L 0 0 L 3020 0 L 6040 0 L 6040 3020 L 6040 6040 L 3020 6040 L 0 6040 L 0 3020 z M 3234 5431 C 3932 5123 4344 4973 4865 4841 L 5045 4795 L 5048 4720 C 5057 4529 5017 3730 4985 3447 C 4904 2743 4723 2225 4391 1750 L 4325 1655 L 4320 2480 L 4315 3305 L 4292 3362 C 4243 3482 4128 3570 3993 3590 C 3902 3603 2158 3603 2067 3590 C 1932 3570 1817 3482 1768 3362 L 1745 3305 L 1740 2460 L 1735 1616 L 1678 1691 C 1473 1964 1286 2347 1196 2680 C 1083 3098 1026 3552 1010 4165 C 1005 4363 998 4582 994 4651 C 988 4769 989 4779 1006 4788 C 1017 4793 1115 4821 1225 4850 C 1755 4988 2207 5151 2795 5418 C 2916 5473 3019 5519 3024 5519 C 3029 5520 3123 5480 3234 5431 z M 4009 3336 C 4074 3302 4070 3368 4070 2321 L 4070 1371 L 3978 1290 C 3866 1193 3704 1075 3555 984 C 3436 911 3079 733 3033 724 C 3002 718 2898 761 2700 860 C 2490 966 2262 1113 2093 1255 L 1990 1340 L 1990 2305 C 1990 3366 1986 3301 2049 3335 C 2088 3357 3968 3357 4009 3336 z" stroke-linecap="round" />
</g>
<g transform="matrix(0.13 0 0 -0.13 542.37 558.24)"  >
<path style="stroke: none; stroke-width: 1; stroke-dasharray: none; stroke-linecap: butt; stroke-dashoffset: 0; stroke-linejoin: miter; stroke-miterlimit: 4; fill: rgb(44,169,201); fill-rule: nonzero; opacity: 1;" vector-effect="non-scaling-stroke"  transform=" translate(-3030.03, -2960)" d="M 2295 3035 C 2262 3003 2259 2915 2290 2882 L 2311 2860 L 3029 2860 L 3747 2860 L 3768 2883 C 3801 2918 3799 3002 3765 3035 L 3741 3060 L 3030 3060 L 2319 3060 L 2295 3035 z" stroke-linecap="round" />
</g>
<g transform="matrix(0.13 0 0 -0.13 542.38 616.58)"  >
<path style="stroke: none; stroke-width: 1; stroke-dasharray: none; stroke-linecap: butt; stroke-dashoffset: 0; stroke-linejoin: miter; stroke-miterlimit: 4; fill: rgb(44,169,201); fill-rule: nonzero; opacity: 1;" vector-effect="non-scaling-stroke"  transform=" translate(-3030, -2522.5)" d="M 2290 2600 C 2262 2572 2262 2482 2289 2449 L 2308 2425 L 3030 2425 L 3752 2425 L 3771 2449 C 3798 2482 3798 2572 3770 2600 C 3750 2620 3737 2620 3030 2620 C 2323 2620 2310 2620 2290 2600 z" stroke-linecap="round" />
</g>
<g transform="matrix(0.13 0 0 -0.13 497.53 670.24)"  >
<path style="stroke: none; stroke-width: 1; stroke-dasharray: none; stroke-linecap: butt; stroke-dashoffset: 0; stroke-linejoin: miter; stroke-miterlimit: 4; fill: rgb(44,169,201); fill-rule: nonzero; opacity: 1;" vector-effect="non-scaling-stroke"  transform=" translate(-2685, -2120)" d="M 2290 2200 C 2259 2169 2262 2077 2295 2045 L 2319 2020 L 2685 2020 L 3051 2020 L 3075 2045 C 3108 2077 3111 2169 3080 2200 C 3061 2219 3047 2220 2685 2220 C 2323 2220 2309 2219 2290 2200 z" stroke-linecap="round" />
</g>
<g transform="matrix(0 0 0 0 0 0)"  >
<g style=""   >
</g>
</g>
<g transform="matrix(0 0 0 0 0 0)"  >
<g style=""   >
</g>
</g>
<g transform="matrix(0 0 0 0 0 0)"  >
<g style=""   >
</g>
</g>
<g transform="matrix(0 0 0 0 0 0)"  >
<g style=""   >
</g>
</g>
<g transform="matrix(0 0 0 0 0 0)"  >
<g style=""   >
</g>
</g>
<g transform="matrix(0 0 0 0 0 0)"  >
<g style=""   >
</g>
</g>
<g transform="matrix(0 0 0 0 0 0)"  >
<g style=""   >
</g>
</g>
<g transform="matrix(0 0 0 0 0 0)"  >
<g style=""   >
</g>
</g>
<g transform="matrix(0 0 0 0 0 0)"  >
<g style=""   >
</g>
</g>
</svg>